<svg id="visual" viewBox="0 0 960 540" width="960" height="540" xmlns="http://www.w3.org/2000/svg" xmlns:xlink="http://www.w3.org/1999/xlink" version="1.1"><g><g transform="translate(723 447)"><path d="M86.9 -27.7C97.2 3.4 79.4 44.1 50.1 64.3C20.8 84.5 -20.1 84.1 -45.9 65C-71.7 45.8 -82.5 7.7 -72.4 -23.2C-62.2 -54.1 -31.1 -77.9 3.6 -79C38.3 -80.2 76.6 -58.8 86.9 -27.7Z" stroke="#32936F" fill="none" stroke-width="18"></path></g><g transform="translate(154 120)"><path d="M71.5 -24.3C81.3 7.1 70.2 44.3 45.7 61.8C21.2 79.4 -16.8 77.4 -42.3 58.8C-67.8 40.1 -80.8 4.8 -71.7 -25.6C-62.5 -56 -31.3 -81.6 -0.2 -81.5C30.8 -81.4 61.6 -55.7 71.5 -24.3Z" stroke="#32936F" fill="none" stroke-width="18"></path></g></g></svg>