<svg id="visual" viewBox="0 0 960 540" width="960" height="540" xmlns="http://www.w3.org/2000/svg" xmlns:xlink="http://www.w3.org/1999/xlink" version="1.1"><rect x="0" y="0" width="960" height="540" fill="#111111"></rect><defs><linearGradient id="grad1_0" x1="43.8%" y1="0%" x2="100%" y2="100%"><stop offset="14.444444444444446%" stop-color="#32936f" stop-opacity="1"></stop><stop offset="85.55555555555554%" stop-color="#32936f" stop-opacity="1"></stop></linearGradient></defs><defs><linearGradient id="grad1_1" x1="43.8%" y1="0%" x2="100%" y2="100%"><stop offset="14.444444444444446%" stop-color="#32936f" stop-opacity="1"></stop><stop offset="85.55555555555554%" stop-color="#264e3d" stop-opacity="1"></stop></linearGradient></defs><defs><linearGradient id="grad1_2" x1="43.8%" y1="0%" x2="100%" y2="100%"><stop offset="14.444444444444446%" stop-color="#111111" stop-opacity="1"></stop><stop offset="85.55555555555554%" stop-color="#264e3d" stop-opacity="1"></stop></linearGradient></defs><defs><linearGradient id="grad2_0" x1="0%" y1="0%" x2="56.3%" y2="100%"><stop offset="14.444444444444446%" stop-color="#32936f" stop-opacity="1"></stop><stop offset="85.55555555555554%" stop-color="#32936f" stop-opacity="1"></stop></linearGradient></defs><defs><linearGradient id="grad2_1" x1="0%" y1="0%" x2="56.3%" y2="100%"><stop offset="14.444444444444446%" stop-color="#264e3d" stop-opacity="1"></stop><stop offset="85.55555555555554%" stop-color="#32936f" stop-opacity="1"></stop></linearGradient></defs><defs><linearGradient id="grad2_2" x1="0%" y1="0%" x2="56.3%" y2="100%"><stop offset="14.444444444444446%" stop-color="#264e3d" stop-opacity="1"></stop><stop offset="85.55555555555554%" stop-color="#111111" stop-opacity="1"></stop></linearGradient></defs><g transform="translate(960, 0)"><path d="M0 378C-37.5 384.5 -75 391 -97.8 365.1C-120.7 339.2 -128.9 280.9 -145.5 252C-162.1 223.1 -187 223.5 -215 215C-243 206.4 -274.1 189 -284.9 164.5C-295.8 140 -286.3 108.6 -298.5 80C-310.6 51.4 -344.3 25.7 -378 0L0 0Z" fill="#1d2f27"></path><path d="M0 252C-25 256.3 -50 260.7 -65.2 243.4C-80.5 226.2 -86 187.3 -97 168C-108 148.7 -124.6 149 -143.3 143.3C-162 137.6 -182.7 126 -189.9 109.7C-197.2 93.4 -190.9 72.4 -199 53.3C-207.1 34.3 -229.5 17.1 -252 0L0 0Z" fill="#2d7056"></path><path d="M0 126C-12.5 128.2 -25 130.3 -32.6 121.7C-40.2 113.1 -43 93.6 -48.5 84C-54 74.4 -62.3 74.5 -71.7 71.7C-81 68.8 -91.4 63 -95 54.8C-98.6 46.7 -95.4 36.2 -99.5 26.7C-103.5 17.1 -114.8 8.6 -126 0L0 0Z" fill="#32936f"></path></g><g transform="translate(0, 540)"><path d="M0 -378C35.1 -371.8 70.1 -365.7 90.6 -338.1C111.1 -310.5 116.9 -261.4 143 -247.7C169.1 -234 215.4 -255.7 252.4 -252.4C289.5 -249.1 317.3 -220.8 327.4 -189C337.4 -157.2 329.7 -121.9 335.2 -89.8C340.7 -57.7 359.3 -28.9 378 0L0 0Z" fill="#1d2f27"></path><path d="M0 -252C23.4 -247.9 46.7 -243.8 60.4 -225.4C74 -207 77.9 -174.2 95.3 -165.1C112.7 -156 143.6 -170.5 168.3 -168.3C193 -166.1 211.5 -147.2 218.2 -126C224.9 -104.8 219.8 -81.3 223.5 -59.9C227.1 -38.5 239.6 -19.2 252 0L0 0Z" fill="#2d7056"></path><path d="M0 -126C11.7 -123.9 23.4 -121.9 30.2 -112.7C37 -103.5 39 -87.1 47.7 -82.6C56.4 -78 71.8 -85.2 84.1 -84.1C96.5 -83 105.8 -73.6 109.1 -63C112.5 -52.4 109.9 -40.6 111.7 -29.9C113.6 -19.2 119.8 -9.6 126 0L0 0Z" fill="#32936f"></path></g></svg>