<svg id="visual" viewBox="0 0 960 540" width="960" height="540" xmlns="http://www.w3.org/2000/svg" xmlns:xlink="http://www.w3.org/1999/xlink" version="1.1"><path d="M0 446L26.7 447.8C53.3 449.7 106.7 453.3 160 456C213.3 458.7 266.7 460.3 320 460.8C373.3 461.3 426.7 460.7 480 460.8C533.3 461 586.7 462 640 462.8C693.3 463.7 746.7 464.3 800 462.5C853.3 460.7 906.7 456.3 933.3 454.2L960 452L960 541L933.3 541C906.7 541 853.3 541 800 541C746.7 541 693.3 541 640 541C586.7 541 533.3 541 480 541C426.7 541 373.3 541 320 541C266.7 541 213.3 541 160 541C106.7 541 53.3 541 26.7 541L0 541Z" fill="#65b093"></path><path d="M0 471L26.7 471.3C53.3 471.7 106.7 472.3 160 474.2C213.3 476 266.7 479 320 479.3C373.3 479.7 426.7 477.3 480 476.8C533.3 476.3 586.7 477.7 640 478.8C693.3 480 746.7 481 800 480C853.3 479 906.7 476 933.3 474.5L960 473L960 541L933.3 541C906.7 541 853.3 541 800 541C746.7 541 693.3 541 640 541C586.7 541 533.3 541 480 541C426.7 541 373.3 541 320 541C266.7 541 213.3 541 160 541C106.7 541 53.3 541 26.7 541L0 541Z" fill="#449d7b"></path><path d="M0 495L26.7 495.3C53.3 495.7 106.7 496.3 160 497.7C213.3 499 266.7 501 320 501.2C373.3 501.3 426.7 499.7 480 499C533.3 498.3 586.7 498.7 640 497.3C693.3 496 746.7 493 800 493.2C853.3 493.3 906.7 496.7 933.3 498.3L960 500L960 541L933.3 541C906.7 541 853.3 541 800 541C746.7 541 693.3 541 640 541C586.7 541 533.3 541 480 541C426.7 541 373.3 541 320 541C266.7 541 213.3 541 160 541C106.7 541 53.3 541 26.7 541L0 541Z" fill="#2d8665"></path><path d="M0 519L26.7 518.7C53.3 518.3 106.7 517.7 160 517.5C213.3 517.3 266.7 517.7 320 518.3C373.3 519 426.7 520 480 519.5C533.3 519 586.7 517 640 517.3C693.3 517.7 746.7 520.3 800 520.2C853.3 520 906.7 517 933.3 515.5L960 514L960 541L933.3 541C906.7 541 853.3 541 800 541C746.7 541 693.3 541 640 541C586.7 541 533.3 541 480 541C426.7 541 373.3 541 320 541C266.7 541 213.3 541 160 541C106.7 541 53.3 541 26.7 541L0 541Z" fill="#246c52"></path></svg>