<svg id="visual" viewBox="0 0 960 540" width="960" height="540" xmlns="http://www.w3.org/2000/svg" xmlns:xlink="http://www.w3.org/1999/xlink" version="1.1"><g transform="translate(465.274720683964 234.4143196564168)"><path d="M159.3 -194.2C212.8 -180.4 266.9 -142.3 269.1 -96.6C271.4 -50.9 221.8 2.5 198.9 62.1C176.1 121.7 180 187.5 151.3 227.5C122.7 267.5 61.3 281.7 11.3 266.2C-38.8 250.7 -77.6 205.5 -125.8 171.8C-174 138.1 -231.5 116 -238.9 80.6C-246.2 45.2 -203.4 -3.5 -179.7 -52.8C-156 -102.2 -151.5 -152.2 -124.7 -174.7C-98 -197.2 -49 -192.1 2 -194.8C52.9 -197.5 105.8 -208 159.3 -194.2" fill="none" stroke="#009473" stroke-width="12"></path></g></svg>