<svg id="visual" viewBox="0 0 960 540" width="960" height="540" xmlns="http://www.w3.org/2000/svg" xmlns:xlink="http://www.w3.org/1999/xlink" version="1.1"><rect x="0" y="0" width="960" height="540" fill="#111111"></rect><g transform="translate(479.9062449716719 306.1500761540065)"><path d="M108.4 -164.4C147.3 -120.8 190.7 -98.4 207.1 -63.6C223.5 -28.7 213 18.5 205.2 74.1C197.4 129.6 192.1 193.5 158.4 215.5C124.6 237.5 62.3 217.8 14.6 197.6C-33.1 177.5 -66.1 157 -104.2 136.4C-142.2 115.7 -185.2 95 -203.6 60.9C-221.9 26.8 -215.6 -20.6 -208.5 -75.6C-201.4 -130.5 -193.6 -193.1 -158.7 -238C-123.8 -282.9 -61.9 -310.2 -13.6 -291.5C34.7 -272.7 69.4 -208 108.4 -164.4" fill="none" stroke="#009473" stroke-width="12"></path></g></svg>