<svg id="visual" viewBox="0 0 960 540" width="960" height="540" xmlns="http://www.w3.org/2000/svg" xmlns:xlink="http://www.w3.org/1999/xlink" version="1.1"><path d="M0 428L26.7 428C53.3 428 106.7 428 160 423.5C213.3 419 266.7 410 320 407.7C373.3 405.3 426.7 409.7 480 409.7C533.3 409.7 586.7 405.3 640 404.8C693.3 404.3 746.7 407.7 800 409.5C853.3 411.3 906.7 411.7 933.3 411.8L960 412L960 541L933.3 541C906.7 541 853.3 541 800 541C746.7 541 693.3 541 640 541C586.7 541 533.3 541 480 541C426.7 541 373.3 541 320 541C266.7 541 213.3 541 160 541C106.7 541 53.3 541 26.7 541L0 541Z" fill="#32936f"></path><path d="M0 454L26.7 452.2C53.3 450.3 106.7 446.7 160 444.2C213.3 441.7 266.7 440.3 320 439C373.3 437.7 426.7 436.3 480 435.8C533.3 435.3 586.7 435.7 640 438.7C693.3 441.7 746.7 447.3 800 448.3C853.3 449.3 906.7 445.7 933.3 443.8L960 442L960 541L933.3 541C906.7 541 853.3 541 800 541C746.7 541 693.3 541 640 541C586.7 541 533.3 541 480 541C426.7 541 373.3 541 320 541C266.7 541 213.3 541 160 541C106.7 541 53.3 541 26.7 541L0 541Z" fill="#7b9543"></path><path d="M0 489L26.7 489C53.3 489 106.7 489 160 487.3C213.3 485.7 266.7 482.3 320 482.2C373.3 482 426.7 485 480 483.8C533.3 482.7 586.7 477.3 640 475.8C693.3 474.3 746.7 476.7 800 475.5C853.3 474.3 906.7 469.7 933.3 467.3L960 465L960 541L933.3 541C906.7 541 853.3 541 800 541C746.7 541 693.3 541 640 541C586.7 541 533.3 541 480 541C426.7 541 373.3 541 320 541C266.7 541 213.3 541 160 541C106.7 541 53.3 541 26.7 541L0 541Z" fill="#c18936"></path><path d="M0 506L26.7 504.5C53.3 503 106.7 500 160 499.5C213.3 499 266.7 501 320 501.7C373.3 502.3 426.7 501.7 480 502.8C533.3 504 586.7 507 640 510C693.3 513 746.7 516 800 513.3C853.3 510.7 906.7 502.3 933.3 498.2L960 494L960 541L933.3 541C906.7 541 853.3 541 800 541C746.7 541 693.3 541 640 541C586.7 541 533.3 541 480 541C426.7 541 373.3 541 320 541C266.7 541 213.3 541 160 541C106.7 541 53.3 541 26.7 541L0 541Z" fill="#fa7268"></path></svg>