<svg id="visual" viewBox="0 0 960 540" width="960" height="540" xmlns="http://www.w3.org/2000/svg" xmlns:xlink="http://www.w3.org/1999/xlink" version="1.1"><path d="M0 40L192 45L384 40L576 46L768 36L960 41L960 0L768 0L576 0L384 0L192 0L0 0Z" fill="#65b093"></path><path d="M0 32L192 38L384 30L576 36L768 36L960 40L960 0L768 0L576 0L384 0L192 0L0 0Z" fill="#57a889"></path><path d="M0 33L192 27L384 31L576 27L768 36L960 32L960 0L768 0L576 0L384 0L192 0L0 0Z" fill="#499f7e"></path><path d="M0 28L192 23L384 30L576 24L768 21L960 21L960 0L768 0L576 0L384 0L192 0L0 0Z" fill="#3a9774"></path><path d="M0 20L192 20L384 17L576 22L768 22L960 19L960 0L768 0L576 0L384 0L192 0L0 0Z" fill="#308d6b"></path><path d="M0 17L192 17L384 16L576 12L768 12L960 14L960 0L768 0L576 0L384 0L192 0L0 0Z" fill="#2c8262"></path><path d="M0 13L192 8L384 11L576 8L768 11L960 9L960 0L768 0L576 0L384 0L192 0L0 0Z" fill="#28775a"></path><path d="M0 3L192 7L384 6L576 8L768 4L960 5L960 0L768 0L576 0L384 0L192 0L0 0Z" fill="#246c52"></path></svg>